<svg width="53" height="55" viewBox="0 0 53 55" fill="none" xmlns="http://www.w3.org/2000/svg">
<path fill-rule="evenodd" clip-rule="evenodd" d="M28.147 1.0073C29.072 0.436387 29.8022 -3.40223e-05 31.0263 -3.40223e-05C31.634 -0.00111882 32.2359 0.117769 32.7975 0.349811C33.3591 0.581853 33.8694 0.922483 34.2991 1.35217C34.7288 1.78185 35.0694 2.29213 35.3014 2.85375C35.5335 3.41536 35.6524 4.01726 35.6513 4.62493V4.71002C35.652 5.31745 35.5329 5.91905 35.3007 6.48035C35.0685 7.04165 34.7278 7.55161 34.2981 7.981C33.8685 8.41039 33.3583 8.75078 32.7969 8.98265C32.2354 9.21452 31.6338 9.33332 31.0263 9.33223C29.7939 9.33223 29.0748 8.89581 28.147 8.3249L28.0717 8.27827L27.9665 8.21259C26.9388 7.57057 24.6931 6.1675 21.4278 6.1675C18.1557 6.1675 15.905 7.57644 14.8823 8.21661C14.8198 8.25574 14.7619 8.29201 14.7086 8.3249C13.7836 8.89581 13.0535 9.33223 11.8293 9.33223C11.2217 9.33332 10.6197 9.21443 10.0581 8.98239C9.4965 8.75035 8.98623 8.40972 8.55655 7.98003C8.12686 7.55035 7.78623 7.04007 7.55419 6.47845C7.32215 5.91683 7.20326 5.31493 7.20434 4.70727V4.62218C7.20362 4.01475 7.32278 3.41315 7.55498 2.85185C7.78718 2.29055 8.12787 1.78059 8.55752 1.3512C8.98717 0.921806 9.49732 0.58142 10.0588 0.34955C10.6202 0.11768 11.2219 -0.00111786 11.8293 -3.40223e-05C13.0535 -3.40223e-05 13.7809 0.436387 14.7086 1.0073C14.7656 1.0424 14.8279 1.08134 14.8953 1.1235C15.9246 1.76728 18.1588 3.1647 21.4278 3.1647C24.7036 3.1647 26.9427 1.76151 27.9671 1.11953L27.9674 1.11939C28.0321 1.0788 28.092 1.04125 28.147 1.0073ZM39.0453 16.2271C39.9676 15.6562 40.7004 15.2225 41.9246 15.2225C42.532 15.2215 43.1337 15.3403 43.6951 15.5721C44.2566 15.804 44.7668 16.1444 45.1964 16.5738C45.626 17.0032 45.9667 17.5131 46.1989 18.0744C46.4311 18.6357 46.5503 19.2373 46.5496 19.8448V19.9271C46.5506 20.5345 46.4319 21.1362 46.2 21.6976C45.9681 22.2591 45.6277 22.7692 45.1983 23.1989C44.7689 23.6285 44.259 23.9692 43.6977 24.2014C43.1364 24.4336 42.5348 24.5528 41.9274 24.5521C40.6949 24.5521 39.9786 24.1156 39.0481 23.5447C38.9918 23.5102 38.9303 23.4719 38.8638 23.4305C37.8322 22.7875 35.5855 21.3873 32.3261 21.3873C29.0479 21.3873 26.7892 22.8037 25.7721 23.4415L25.7016 23.4857L25.6639 23.5093L25.6069 23.5447C24.6846 24.1156 23.9518 24.5521 22.7276 24.5521C22.1202 24.5528 21.5185 24.4336 20.9572 24.2014C20.3959 23.9692 19.886 23.6285 19.4566 23.1989C19.0272 22.7692 18.6868 22.2591 18.455 21.6976C18.2231 21.1362 18.1043 20.5345 18.1054 19.9271V19.8448C18.105 19.2385 18.2241 18.6381 18.4557 18.0778C18.6874 17.5175 19.0272 17.0084 19.4556 16.5794C19.8841 16.1505 20.3928 15.8101 20.9528 15.5778C21.5128 15.3454 22.1131 15.2256 22.7194 15.2253C23.9518 15.2253 24.6682 15.659 25.5986 16.2299C25.6579 16.2663 25.7228 16.3068 25.7933 16.3508C26.8281 16.9969 29.0593 18.39 32.3179 18.39C35.5992 18.39 37.8534 16.9749 38.8734 16.3346C38.9353 16.2958 38.9926 16.2598 39.0453 16.2271ZM39.0467 46.6285C39.9689 46.0575 40.7018 45.6211 41.9259 45.6211C42.5331 45.6204 43.1345 45.7395 43.6956 45.9715C44.2568 46.2035 44.7666 46.544 45.196 46.9733C45.6253 47.4027 45.9657 47.9125 46.1978 48.4736C46.4298 49.0347 46.5489 49.6361 46.5482 50.2433V50.3284C46.5489 50.9356 46.4298 51.537 46.1978 52.0981C45.9657 52.6592 45.6253 53.1691 45.196 53.5984C44.7666 54.0278 44.2568 54.3682 43.6956 54.6003C43.1345 54.8323 42.5331 54.9514 41.9259 54.9506C40.6935 54.9506 39.9771 54.5142 39.0467 53.9433L38.9883 53.9073L38.8624 53.829C37.8308 53.1861 35.5841 51.7859 32.3247 51.7859C29.0465 51.7859 26.7877 53.2023 25.7707 53.8401C25.7114 53.8773 25.6563 53.9118 25.6054 53.9433C24.6832 54.5142 23.9503 54.9506 22.7262 54.9506C22.119 54.9514 21.5176 54.8323 20.9565 54.6003C20.3953 54.3682 19.8855 54.0278 19.4562 53.5984C19.0268 53.1691 18.6864 52.6592 18.4543 52.0981C18.2223 51.537 18.1032 50.9356 18.104 50.3284V50.2433C18.1032 49.6361 18.2223 49.0347 18.4543 48.4736C18.6864 47.9125 19.0268 47.4027 19.4562 46.9733C19.8855 46.544 20.3953 46.2035 20.9565 45.9715C21.5176 45.7395 22.119 45.6204 22.7262 45.6211C23.9586 45.6211 24.675 46.0575 25.6054 46.6285C25.6627 46.6636 25.7252 46.7025 25.7928 46.7447C26.8253 47.3886 29.0661 48.7859 32.3247 48.7859C35.6056 48.7859 37.8645 47.3693 38.8815 46.7316C38.9408 46.6944 38.9959 46.6599 39.0467 46.6285ZM31.0263 30.3975C29.8022 30.3975 29.072 30.8339 28.147 31.4048C28.0937 31.4377 28.0358 31.474 27.9733 31.5131C26.9507 32.1533 24.6999 33.5622 21.4278 33.5622C18.1625 33.5622 15.9168 32.1592 14.8892 31.5171C14.8241 31.4765 14.7639 31.4388 14.7086 31.4048C13.7808 30.8339 13.0617 30.3975 11.8293 30.3975C11.2217 30.3968 10.62 30.5159 10.0586 30.7481C9.4971 30.9802 8.98696 31.3209 8.55735 31.7505C8.12774 32.1801 7.78709 32.6903 7.55492 33.2517C7.32275 33.8132 7.20362 34.4149 7.20434 35.0225V35.1048C7.20361 35.7122 7.32277 36.3138 7.55497 36.8751C7.78718 37.4364 8.12787 37.9464 8.55751 38.3758C8.98716 38.8052 9.49732 39.1456 10.0588 39.3774C10.6202 39.6093 11.2219 39.7281 11.8293 39.727C13.0535 39.727 13.7836 39.2906 14.7086 38.7224C14.7655 38.6874 14.8278 38.6486 14.8953 38.6065C15.9239 37.9643 18.1694 36.5623 21.4278 36.5623C24.6902 36.5623 26.9349 37.9653 27.9637 38.6084L27.9644 38.6088L27.9659 38.6098C28.0312 38.6506 28.0916 38.6883 28.147 38.7224C29.0748 39.2933 29.7939 39.727 31.0263 39.727C31.6338 39.7281 32.2354 39.6093 32.7969 39.3774C33.3583 39.1456 33.8685 38.8052 34.2981 38.3758C34.7278 37.9464 35.0684 37.4364 35.3006 36.8751C35.5329 36.3138 35.652 35.7122 35.6513 35.1048V35.0225C35.652 34.4149 35.5329 33.8132 35.3007 33.2517C35.0685 32.6903 34.7279 32.1801 34.2983 31.7505C33.8687 31.3209 33.3585 30.9802 32.7971 30.7481C32.2356 30.5159 31.6339 30.3968 31.0263 30.3975ZM45.6834 31.1769C46.4439 30.6687 47.3381 30.3975 48.2529 30.3975C49.4792 30.3982 50.6552 30.8857 51.5224 31.7529C52.3896 32.6201 52.8771 33.7961 52.8778 35.0225C52.8778 35.9372 52.6066 36.8314 52.0984 37.5919C51.5902 38.3525 50.8679 38.9453 50.0228 39.2954C49.1777 39.6454 48.2477 39.737 47.3506 39.5585C46.4534 39.3801 45.6293 38.9396 44.9825 38.2928C44.3357 37.646 43.8952 36.8219 43.7168 35.9247C43.5383 35.0276 43.6299 34.0977 43.9799 33.2526C44.33 32.4075 44.9228 31.6851 45.6834 31.1769ZM9.24993 19.845C9.24993 22.3993 7.17925 24.47 4.62496 24.47C2.07066 24.47 0 22.3993 0 19.845C0 17.2907 2.07066 15.2201 4.62496 15.2201C7.17925 15.2201 9.24993 17.2907 9.24993 19.845Z" fill="white"/>
</svg>
