<svg width="14" height="8" viewBox="0 0 14 8" fill="none" xmlns="http://www.w3.org/2000/svg">
<path fill-rule="evenodd" clip-rule="evenodd" d="M0 4C1.38125 1.60938 4.0375 0 7 0C9.9625 0 12.6187 1.60938 14 4C12.6187 6.39062 9.95938 8 7 8C4.04063 8 1.38437 6.39062 0 4ZM7 3C7 2.44688 6.55312 2 6 2C5.44688 2 5 2.44688 5 3C5 3.55312 5.44688 4 6 4C6.55312 4 7 3.55312 7 3ZM1.18125 4C1.75625 3.175 2.58125 2.47813 3.45 1.96563C3.83125 1.74063 4.23438 1.55313 4.65 1.40625C3.94375 2.04688 3.5 2.97187 3.5 4C3.5 5.02812 3.94375 5.95312 4.65 6.59375C4.23438 6.44688 3.83125 6.25938 3.45 6.03438C2.58125 5.52188 1.75625 4.825 1.18125 4ZM9.35 6.59375C9.76562 6.44688 10.1688 6.25938 10.55 6.03438C11.4188 5.52188 12.2406 4.825 12.8188 4C12.2438 3.175 11.4188 2.47813 10.55 1.96563C10.1688 1.74063 9.76562 1.55313 9.35 1.40625C10.0563 2.04688 10.5 2.97187 10.5 4C10.5 5.02812 10.0563 5.95312 9.35 6.59375Z" fill="white"/>
</svg>
