<svg width="19" height="18" viewBox="0 0 19 18" fill="none" xmlns="http://www.w3.org/2000/svg">
<path d="M2.5656 6.15785L0.192383 4.43848V14.3673L2.5656 12.551L4.67244 9.35443L2.5656 6.15785Z" fill="white"/>
<path d="M6.97301 9.35443L2.97728 6.40001L4.9146 9.35443L2.90463 12.4299L6.97301 9.35443Z" fill="white"/>
<path d="M3.14724 4.48718L7.1914 7.4416C7.53043 6.99763 8.55237 6.10969 9.92787 6.10969C11.6472 6.10969 13.0518 7.58689 13.0518 9.47578C13.0518 11.3647 11.284 12.5997 9.70992 12.5997C8.45066 12.5997 7.50622 11.7441 7.1914 11.3162L2.88086 14.5613C3.55085 15.7075 5.89824 18 9.92787 18C14.9649 18 18.2826 13.9316 18.2826 9.28205C18.2826 4.63248 14.6743 1 10.049 1C6.34867 1 3.90603 3.32479 3.14724 4.48718Z" fill="white"/>
<path d="M7.09375 11.4617C7.55386 12.8179 11.2493 15.2153 14.1165 13.956C17.7006 12.382 17.2163 8.28937 17.1436 7.65974C17.071 7.03011 16.3929 1.99308 9.53962 1.02441" stroke="#2376BC" stroke-width="0.5" stroke-linecap="round"/>
</svg>
