<svg width="142" height="31" viewBox="0 0 142 31" fill="none" xmlns="http://www.w3.org/2000/svg">
<path fill-rule="evenodd" clip-rule="evenodd" d="M17.1649 4.0704e-06C16.4876 4.0704e-06 16.0836 0.241457 15.5719 0.55732C15.5414 0.576126 15.5082 0.596925 15.4723 0.619411C14.9056 0.974592 13.6667 1.75092 11.8544 1.75092C10.0458 1.75092 8.80971 0.977783 8.24025 0.621609L8.24006 0.621494C8.20283 0.598208 8.16845 0.576706 8.13695 0.55732C7.62367 0.241457 7.22125 4.0704e-06 6.54397 4.0704e-06C6.20791 -0.000595573 5.87502 0.0651299 5.5644 0.193414C5.25378 0.321698 4.97153 0.510018 4.73383 0.747583C4.49612 0.985147 4.30763 1.26729 4.17917 1.57783C4.0507 1.88837 3.98477 2.22121 3.98517 2.55728V2.60435C3.98457 2.94055 4.05035 3.27355 4.17873 3.58427C4.30711 3.89499 4.49556 4.17731 4.73329 4.41503C4.97102 4.65276 5.25333 4.84121 5.56405 4.96959C5.87476 5.09797 6.20778 5.16375 6.54397 5.16315C7.22125 5.16315 7.62519 4.92169 8.13695 4.60583C8.16644 4.58763 8.19848 4.56757 8.23307 4.54592C8.79885 4.19174 10.0441 3.41223 11.8544 3.41223C13.661 3.41223 14.9034 4.1885 15.472 4.5437L15.4721 4.5438L15.5177 4.57226L15.5719 4.60583C16.0851 4.92169 16.483 5.16315 17.1649 5.16315C17.5009 5.16375 17.8338 5.09802 18.1444 4.96974C18.455 4.84145 18.7373 4.65313 18.975 4.41557C19.2127 4.178 19.4012 3.89587 19.5297 3.58532C19.6581 3.27478 19.7241 2.94194 19.7236 2.60587V2.5588C19.7243 2.2226 19.6585 1.8896 19.5301 1.57888C19.4017 1.26816 19.2133 0.985844 18.9755 0.748119C18.7378 0.510393 18.4555 0.321937 18.1448 0.193558C17.8341 0.0651794 17.5011 -0.000596099 17.1649 4.0704e-06ZM23.1954 8.42205C22.5181 8.42205 22.1126 8.66198 21.6024 8.97784C21.5732 8.99591 21.5415 9.01582 21.5073 9.03731C20.943 9.39156 19.6958 10.1745 17.8804 10.1745C16.0775 10.1745 14.8431 9.40372 14.2706 9.04624C14.2316 9.02191 14.1957 8.99949 14.1629 8.97936C13.6481 8.6635 13.2518 8.42357 12.5699 8.42357C12.2345 8.42377 11.9024 8.49003 11.5926 8.61858C11.2828 8.74712 11.0013 8.93543 10.7643 9.17276C10.5272 9.41008 10.3392 9.69177 10.2111 10.0017C10.0829 10.3117 10.017 10.6439 10.0172 10.9793V11.0249C10.0166 11.3609 10.0824 11.6938 10.2106 12.0044C10.3389 12.3151 10.5272 12.5973 10.7648 12.835C11.0024 13.0727 11.2845 13.2612 11.595 13.3897C11.9056 13.5181 12.2384 13.5841 12.5745 13.5837C13.2518 13.5837 13.6572 13.3422 14.1675 13.0264C14.1956 13.0089 14.2261 12.9898 14.2589 12.9692C14.8216 12.6164 16.0713 11.8328 17.8849 11.8328C19.6882 11.8328 20.9313 12.6074 21.502 12.9631L21.5023 12.9633L21.5028 12.9636L21.5031 12.9638C21.5395 12.9865 21.5731 13.0074 21.6039 13.0264C22.1187 13.3422 22.5151 13.5837 23.1969 13.5837C23.533 13.5841 23.8658 13.5181 24.1764 13.3897C24.4869 13.2612 24.769 13.0727 25.0066 12.835C25.2442 12.5973 25.4325 12.3151 25.5608 12.0044C25.689 11.6938 25.7548 11.3609 25.7542 11.0249V10.9793C25.7546 10.6433 25.6887 10.3104 25.5602 9.99987C25.4317 9.68933 25.2432 9.40719 25.0055 9.16963C24.7678 8.93206 24.4856 8.74374 24.1749 8.61546C23.8643 8.48717 23.5314 8.42145 23.1954 8.42205ZM23.196 25.2403C22.5188 25.2403 22.1133 25.4817 21.6031 25.7976L21.5517 25.8296L21.5117 25.8546C20.949 26.2075 19.6993 26.9912 17.8841 26.9912C16.0813 26.9912 14.8415 26.2181 14.2703 25.8619C14.2329 25.8386 14.1983 25.817 14.1666 25.7976C13.6518 25.4817 13.2555 25.2403 12.5736 25.2403C12.2377 25.2399 11.905 25.3057 11.5945 25.4341C11.2841 25.5625 11.002 25.7508 10.7645 25.9884C10.5269 26.2259 10.3386 26.508 10.2102 26.8184C10.0818 27.1289 10.016 27.4616 10.0164 27.7975V27.8446C10.016 28.1805 10.0818 28.5133 10.2102 28.8237C10.3386 29.1341 10.5269 29.4162 10.7645 29.6538C11.002 29.8913 11.2841 30.0797 11.5945 30.208C11.905 30.3364 12.2377 30.4023 12.5736 30.4019C13.2509 30.4019 13.6564 30.1604 14.1666 29.8446C14.1947 29.8272 14.2252 29.808 14.2581 29.7875C14.8207 29.4346 16.0704 28.651 17.8841 28.651C19.6874 28.651 20.9304 29.4257 21.5011 29.7813L21.5712 29.8249L21.6031 29.8446C22.1179 30.1604 22.5142 30.4019 23.196 30.4019C23.532 30.4023 23.8647 30.3364 24.1751 30.208C24.4856 30.0797 24.7677 29.8913 25.0052 29.6538C25.2428 29.4162 25.4311 29.1341 25.5595 28.8237C25.6878 28.5133 25.7537 28.1805 25.7533 27.8446V27.7975C25.7537 27.4616 25.6878 27.1289 25.5595 26.8184C25.4311 26.508 25.2428 26.2259 25.0052 25.9884C24.7677 25.7508 24.4856 25.5625 24.1751 25.4341C23.8647 25.3057 23.532 25.2399 23.196 25.2403ZM15.5719 17.3751C16.0836 17.0592 16.4876 16.8178 17.1649 16.8178C17.501 16.8174 17.8339 16.8833 18.1445 17.0118C18.4552 17.1402 18.7374 17.3287 18.9751 17.5664C19.2128 17.804 19.4012 18.0863 19.5297 18.3969C19.6581 18.7075 19.724 19.0404 19.7236 19.3766V19.4221C19.724 19.7582 19.6581 20.091 19.5297 20.4016C19.4012 20.7121 19.2127 20.9943 18.975 21.2318C18.7373 21.4694 18.455 21.6577 18.1444 21.786C17.8338 21.9143 17.5009 21.98 17.1649 21.9794C16.483 21.9794 16.0851 21.7395 15.5719 21.4236C15.5409 21.4045 15.507 21.3834 15.4705 21.3605C14.9012 21.0047 13.6594 20.2285 11.8544 20.2285C10.0517 20.2285 8.80932 21.0042 8.24023 21.3595C8.2029 21.3828 8.16846 21.4043 8.13695 21.4236C7.62519 21.738 7.22125 21.9794 6.54397 21.9794C6.2079 21.98 5.87502 21.9143 5.5644 21.786C5.25378 21.6577 4.97153 21.4694 4.73383 21.2318C4.49612 20.9943 4.30763 20.7121 4.17916 20.4016C4.0507 20.091 3.98477 19.7582 3.98517 19.4221V19.3766C3.98477 19.0404 4.05069 18.7075 4.17914 18.3969C4.30759 18.0863 4.49605 17.804 4.73373 17.5664C4.97142 17.3287 5.25366 17.1402 5.56429 17.0118C5.87491 16.8833 6.20783 16.8174 6.54397 16.8178C7.22581 16.8178 7.62367 17.0592 8.13695 17.3751C8.16753 17.3939 8.20084 17.4147 8.23686 17.4372C8.80539 17.7924 10.0479 18.5687 11.8544 18.5687C13.6647 18.5687 14.91 17.7892 15.4757 17.435C15.5103 17.4134 15.5424 17.3933 15.5719 17.3751ZM26.6963 16.8178C26.1902 16.8178 25.6955 16.9679 25.2747 17.249C24.8539 17.5302 24.526 17.9298 24.3323 18.3974C24.1386 18.8649 24.0879 19.3794 24.1867 19.8758C24.2854 20.3721 24.5291 20.8281 24.887 21.1859C25.2448 21.5438 25.7008 21.7875 26.1971 21.8862C26.6935 21.9849 27.208 21.9343 27.6755 21.7406C28.1431 21.5469 28.5427 21.219 28.8239 20.7982C29.105 20.3774 29.2551 19.8827 29.2551 19.3766C29.2547 18.6981 28.985 18.0475 28.5052 17.5677C28.0254 17.0879 27.3748 16.8182 26.6963 16.8178ZM2.55879 13.5379C3.97197 13.5379 5.11759 12.3923 5.11759 10.9791C5.11759 9.56596 3.97197 8.42035 2.55879 8.42035C1.14561 8.42035 0 9.56596 0 10.9791C0 12.3923 1.14561 13.5379 2.55879 13.5379ZM53.0295 12.399C53.9254 11.4059 55.1798 10.9032 56.7561 10.9032C58.3247 10.9032 59.5776 11.4104 60.4887 12.399C61.3998 13.3876 61.8554 14.6678 61.8554 16.2046C61.8554 18.2592 61.2298 20.2394 59.9936 22.0936H57.4652L57.526 21.9964C58.9063 19.8582 59.6034 17.9099 59.6034 16.2046C59.6286 15.3183 59.3565 14.4491 58.8304 13.7354C58.3217 13.0672 57.649 12.7422 56.7606 12.7422C55.8722 12.7422 55.2056 13.0535 54.6999 13.7232C54.1942 14.3929 53.9406 15.2251 53.9406 16.2046C53.9406 17.9099 54.6422 19.8582 56.0287 21.9964L56.0894 22.0936H53.5519C52.3097 20.2409 51.6825 18.2592 51.6825 16.2046C51.6825 14.6678 52.1335 13.3922 53.0295 12.399ZM86.1081 16.0149C86.1081 17.6322 85.44 19.3557 84.1218 21.1461H83.9017H81.3975H81.1561L81.2639 21.0292C83.0103 19.172 83.8925 17.4849 83.8925 16.0179C83.8925 15.1204 83.6329 14.3733 83.1196 13.7962C82.6063 13.2192 82.1006 12.9367 81.601 12.9367C80.8417 12.9367 80.2859 13.1888 79.9048 13.7066C79.5236 14.2245 79.311 15.005 79.2973 15.9921V18.3413H77.1045V15.986C77.0878 15.0005 76.8813 14.1956 76.4971 13.6003C76.1129 13.0051 75.6437 12.7424 75.0484 12.7424C74.3377 12.7424 73.8335 13.0278 73.507 13.6171C73.1699 14.2336 72.9968 15.0703 72.9968 16.1105V18.3383H70.7842V16.1105C70.7842 15.0718 70.5549 14.2731 70.1024 13.7325C69.6499 13.1919 69.1214 12.9337 68.4836 12.9337C67.9885 12.9337 67.4874 13.2283 66.9939 13.8084C66.5004 14.3885 66.2346 15.2829 66.2346 16.4325C66.2346 18.8774 67.1989 20.7923 69.1001 22.1241C71.0014 23.4559 74.3028 24.1559 78.8645 24.1559H80.3573V26.2531H78.9784C73.9672 26.2531 70.1707 25.3981 67.7152 23.711C65.2597 22.0239 63.9765 19.5805 63.9765 16.4902C63.9765 14.8198 64.432 13.4956 65.328 12.5419C66.224 11.5882 67.2885 11.0947 68.4775 11.0947C69.8883 11.0947 71.012 11.7932 71.8305 13.1751C72.3393 11.6672 73.419 10.8973 75.0423 10.8973C76.5077 10.8973 77.5783 11.6733 78.2313 13.2086C79.0513 11.7993 80.1857 11.0826 81.6071 11.0826C82.7946 11.0826 83.8515 11.5381 84.7521 12.4295C85.6526 13.3209 86.1081 14.5358 86.1081 16.0149ZM96.5977 13.4358C97.4952 11.7532 98.7692 10.9028 100.394 10.9028C101.011 10.8878 101.625 11.0048 102.193 11.246C102.761 11.4872 103.271 11.847 103.689 12.3014C104.557 13.2323 104.995 14.6097 104.995 16.4016C104.995 18.6961 103.879 20.6126 101.673 22.0992H98.3319L98.5855 21.9474C101.368 20.2876 102.777 18.4197 102.777 16.4016C102.777 15.1837 102.529 14.2452 102.045 13.6484C101.56 13.0516 101.02 12.7479 100.391 12.7479C99.6303 12.7479 99.0046 13.0789 98.4838 13.7608C97.942 14.4888 97.6534 15.3742 97.6622 16.2816L97.6516 18.3894H95.5468V16.3074C95.5665 15.401 95.2821 14.5141 94.739 13.7881C94.2075 13.088 93.5849 12.7479 92.8256 12.7479C92.1908 12.7479 91.6517 13.0364 91.1642 13.6393C90.6768 14.2422 90.4308 15.173 90.4308 16.4016C90.4308 18.4896 91.84 20.3544 94.6205 21.9459L94.8878 22.0977H91.5469C89.345 20.611 88.2319 18.6946 88.2319 16.4C88.2319 14.6021 88.6692 13.2247 89.5318 12.2999C89.9493 11.8463 90.4589 11.487 91.0263 11.2461C91.5938 11.0052 92.2062 10.8881 92.8225 10.9028C94.4428 10.9028 95.7108 11.7532 96.5977 13.4358ZM115.284 16.2488C115.708 15.554 115.929 14.7544 115.922 13.9405C115.93 13.4835 115.828 13.0313 115.625 12.6217C115.422 12.2122 115.124 11.8572 114.756 11.5868C113.996 11.0097 113.07 10.7166 111.981 10.7166C110.87 10.7166 109.93 10.9763 109.184 11.4911C108.438 12.0059 108.034 12.7211 108.04 13.5791C108.054 13.9987 108.12 14.4149 108.236 14.8183L110.273 14.5753L110.252 14.5146C110.145 14.2356 110.08 13.9424 110.06 13.6444C110.069 13.4904 110.115 13.3407 110.194 13.2084C110.273 13.0761 110.384 12.9651 110.516 12.8851C110.819 12.6649 111.319 12.5556 111.977 12.5556C112.634 12.5556 113.109 12.7075 113.448 12.9929C113.787 13.2784 113.943 13.5791 113.943 13.9041C113.948 14.5038 113.825 15.0977 113.582 15.6459C113.18 15.5814 112.773 15.558 112.367 15.576C110.49 15.7279 109.069 16.2822 108.138 17.2298C107.681 17.6921 107.321 18.2414 107.08 18.8453C106.839 19.4491 106.721 20.0952 106.735 20.7453C106.707 22.1941 107.252 23.5953 108.253 24.6434C109.258 25.7064 110.683 26.2486 112.505 26.2486C114.291 26.2486 115.694 25.708 116.654 24.6419C117.125 24.1247 117.494 23.5229 117.741 22.8682C117.988 22.1869 118.111 21.4669 118.104 20.7422C118.107 18.9275 117.153 17.4165 115.284 16.2488ZM114.929 23.6548C114.277 24.1742 113.454 24.4369 112.478 24.4369C111.562 24.4636 110.666 24.1704 109.943 23.6078C109.269 23.0687 108.929 22.0892 108.929 20.7073C108.907 19.8759 109.175 19.0629 109.688 18.4082C110.185 17.7856 111.091 17.4515 112.378 17.4165C113.665 17.4348 114.579 17.7916 115.093 18.4795C115.597 19.129 115.877 19.9246 115.89 20.7468C115.892 22.1712 115.568 23.1431 114.929 23.6503V23.6548ZM121.193 12.399C122.09 11.4059 123.345 10.9032 124.92 10.9032C126.488 10.9032 127.738 11.4104 128.649 12.399C129.56 13.3876 130.016 14.6678 130.016 16.2046C130.016 18.2577 129.39 20.2394 128.154 22.0936H125.626L125.688 21.9964C127.067 19.8582 127.764 17.9099 127.764 16.2046C127.789 15.3183 127.517 14.4491 126.991 13.7354C126.482 13.0672 125.809 12.7422 124.921 12.7422C124.033 12.7422 123.366 13.0535 122.863 13.7232C122.361 14.3929 122.104 15.2251 122.104 16.2046C122.104 17.9099 122.806 19.8582 124.192 21.9964L124.256 22.0936H121.715C120.473 20.2394 119.846 18.2592 119.846 16.2046C119.846 14.6678 120.296 13.3922 121.193 12.399ZM142 17.3498C142 18.9458 141.544 20.2123 140.641 21.1082C139.737 22.0042 138.586 22.4613 137.21 22.4613C135.636 22.4613 134.381 21.9738 133.485 21.008C132.589 20.0422 132.137 18.7529 132.137 17.1584C132.116 16.1857 132.398 15.2305 132.943 14.425L134.875 15.2572L134.86 15.2845C134.524 15.8529 134.344 16.4999 134.339 17.16C134.339 18.1987 134.6 19.0475 135.113 19.6823C135.627 20.3171 136.313 20.6223 137.21 20.6223C137.907 20.6223 138.497 20.3429 139.013 19.7674C139.529 19.1918 139.786 18.3809 139.786 17.3513C139.786 16.0119 139.092 14.9216 137.66 14.0317C136.141 13.0811 135.371 11.7706 135.371 10.1381H137.431V10.1472C137.431 11.154 138.173 12.176 139.636 13.1843C141.206 14.2747 142 15.6687 142 17.3498ZM49.0663 18.814C49.086 18.6379 49.086 18.4587 49.086 18.275C49.083 18.1717 49.0799 18.0699 49.0754 17.9773C48.9919 16.521 48.4786 15.3092 47.5674 14.3753C47.4148 14.2214 47.2793 14.0771 47.1542 13.9438C47.1212 13.9087 47.0889 13.8743 47.0572 13.8407L47.0335 13.815C46.3347 13.0586 46.0804 12.7833 46.0489 12.3328C45.9896 11.4869 46.1719 11.0845 46.1719 11.0845H44.0276C43.9958 11.3184 43.976 11.5659 43.9654 11.8256C43.9548 12.1384 43.9608 12.4679 43.9806 12.8127C43.9806 12.8129 43.9805 12.8136 43.9804 12.8148C43.9769 12.862 43.917 13.6496 45.3913 15.1239C45.4262 15.1603 45.4641 15.1937 45.502 15.227L45.5022 15.2272C45.9019 15.5705 46.2281 15.9911 46.4612 16.4637C46.6942 16.9363 46.8293 17.4512 46.8583 17.9773C46.8664 18.0783 46.8695 18.1797 46.8674 18.281C46.8698 18.6036 46.8403 18.9256 46.7793 19.2423C46.7106 19.5288 46.6023 19.8043 46.4574 20.0608C46.1853 20.556 45.7796 20.9649 45.2865 21.2407C45.1088 21.3372 44.9228 21.4175 44.7308 21.4807C44.4957 21.5559 44.2525 21.6033 44.0064 21.6219C43.9198 21.634 43.8318 21.634 43.7437 21.634C43.3422 21.6437 42.9433 21.5674 42.5738 21.4102C42.2042 21.2531 41.8725 21.0187 41.601 20.7229C41.033 20.117 40.7172 19.2666 40.7172 18.1565V17.9682V7.38376H38.5912V18.1489V18.3008C38.5921 19.2246 38.8228 20.1336 39.2624 20.9461C39.6926 21.7313 40.3345 22.38 41.115 22.8185C41.9213 23.2644 42.83 23.4921 43.7513 23.4791C44.304 23.4825 44.8543 23.4063 45.3853 23.2528C46.2692 23.0895 47.0844 22.6666 47.7269 22.038C48.5241 21.2438 48.9736 20.1625 49.0663 18.814Z" fill="white"/>
</svg>
