<svg width="30" height="31" viewBox="0 0 30 31" fill="none" xmlns="http://www.w3.org/2000/svg">
<path fill-rule="evenodd" clip-rule="evenodd" d="M15.5719 0.55732C16.0836 0.241457 16.4876 4.0704e-06 17.1649 4.0704e-06C17.5011 -0.000596099 17.8341 0.0651794 18.1448 0.193558C18.4555 0.321937 18.7378 0.510393 18.9755 0.748119C19.2133 0.985844 19.4017 1.26816 19.5301 1.57888C19.6585 1.8896 19.7243 2.2226 19.7236 2.5588V2.60587C19.7241 2.94194 19.6581 3.27478 19.5297 3.58532C19.4012 3.89587 19.2127 4.178 18.975 4.41557C18.7373 4.65313 18.455 4.84145 18.1444 4.96974C17.8338 5.09802 17.5009 5.16375 17.1649 5.16315C16.483 5.16315 16.0851 4.92169 15.5719 4.60583L15.5177 4.57226L15.4721 4.5438L15.472 4.5437C14.9034 4.1885 13.661 3.41223 11.8544 3.41223C10.0441 3.41223 8.79885 4.19174 8.23307 4.54592C8.19848 4.56757 8.16644 4.58763 8.13695 4.60583C7.62519 4.92169 7.22125 5.16315 6.54397 5.16315C6.20778 5.16375 5.87476 5.09797 5.56405 4.96959C5.25333 4.84121 4.97102 4.65276 4.73329 4.41503C4.49556 4.17731 4.30711 3.89499 4.17873 3.58427C4.05035 3.27355 3.98457 2.94055 3.98517 2.60435V2.55728C3.98477 2.22121 4.0507 1.88837 4.17917 1.57783C4.30763 1.26729 4.49612 0.985147 4.73383 0.747583C4.97153 0.510018 5.25378 0.321698 5.5644 0.193414C5.87502 0.0651299 6.20791 -0.000595573 6.54397 4.0704e-06C7.22125 4.0704e-06 7.62367 0.241457 8.13695 0.55732C8.16845 0.576706 8.20283 0.598208 8.24006 0.621494L8.24025 0.621609C8.80971 0.977783 10.0458 1.75092 11.8544 1.75092C13.6667 1.75092 14.9056 0.974592 15.4723 0.619411C15.5082 0.596925 15.5414 0.576126 15.5719 0.55732ZM21.6024 8.97784C22.1126 8.66198 22.5181 8.42205 23.1954 8.42205C23.5314 8.42145 23.8643 8.48717 24.1749 8.61546C24.4856 8.74374 24.7678 8.93206 25.0055 9.16963C25.2432 9.40719 25.4317 9.68933 25.5602 9.99987C25.6887 10.3104 25.7546 10.6433 25.7542 10.9793V11.0249C25.7548 11.3609 25.689 11.6938 25.5608 12.0044C25.4325 12.3151 25.2442 12.5973 25.0066 12.835C24.769 13.0727 24.4869 13.2612 24.1764 13.3897C23.8658 13.5181 23.533 13.5841 23.1969 13.5837C22.5151 13.5837 22.1187 13.3422 21.6039 13.0264C21.5731 13.0074 21.5395 12.9865 21.5031 12.9638L21.5028 12.9636L21.5023 12.9633L21.502 12.9631C20.9313 12.6074 19.6882 11.8328 17.8849 11.8328C16.0713 11.8328 14.8216 12.6164 14.2589 12.9692C14.2261 12.9898 14.1956 13.0089 14.1675 13.0264C13.6572 13.3422 13.2518 13.5837 12.5745 13.5837C12.2384 13.5841 11.9056 13.5181 11.595 13.3897C11.2845 13.2612 11.0024 13.0727 10.7648 12.835C10.5272 12.5973 10.3389 12.3151 10.2106 12.0044C10.0824 11.6938 10.0166 11.3609 10.0172 11.0249V10.9793C10.017 10.6439 10.0829 10.3117 10.2111 10.0017C10.3392 9.69177 10.5272 9.41008 10.7643 9.17276C11.0013 8.93543 11.2828 8.74712 11.5926 8.61858C11.9024 8.49003 12.2345 8.42377 12.5699 8.42357C13.2518 8.42357 13.6481 8.6635 14.1629 8.97936C14.1957 8.99949 14.2316 9.02191 14.2706 9.04624C14.8431 9.40372 16.0775 10.1745 17.8804 10.1745C19.6958 10.1745 20.943 9.39156 21.5073 9.03731C21.5415 9.01582 21.5732 8.99591 21.6024 8.97784ZM21.6031 25.7976C22.1133 25.4817 22.5188 25.2403 23.196 25.2403C23.532 25.2399 23.8647 25.3057 24.1751 25.4341C24.4856 25.5625 24.7677 25.7508 25.0052 25.9884C25.2428 26.2259 25.4311 26.508 25.5595 26.8184C25.6878 27.1289 25.7537 27.4616 25.7533 27.7975V27.8446C25.7537 28.1805 25.6878 28.5133 25.5595 28.8237C25.4311 29.1341 25.2428 29.4162 25.0052 29.6538C24.7677 29.8913 24.4856 30.0797 24.1751 30.208C23.8647 30.3364 23.532 30.4023 23.196 30.4019C22.5142 30.4019 22.1179 30.1604 21.6031 29.8446L21.5712 29.8249L21.5011 29.7813C20.9304 29.4257 19.6874 28.651 17.8841 28.651C16.0704 28.651 14.8207 29.4346 14.2581 29.7875C14.2252 29.808 14.1947 29.8272 14.1666 29.8446C13.6564 30.1604 13.2509 30.4019 12.5736 30.4019C12.2377 30.4023 11.905 30.3364 11.5945 30.208C11.2841 30.0797 11.002 29.8913 10.7645 29.6538C10.5269 29.4162 10.3386 29.1341 10.2102 28.8237C10.0818 28.5133 10.016 28.1805 10.0164 27.8446V27.7975C10.016 27.4616 10.0818 27.1289 10.2102 26.8184C10.3386 26.508 10.5269 26.2259 10.7645 25.9884C11.002 25.7508 11.2841 25.5625 11.5945 25.4341C11.905 25.3057 12.2377 25.2399 12.5736 25.2403C13.2555 25.2403 13.6518 25.4817 14.1666 25.7976C14.1983 25.817 14.2329 25.8386 14.2703 25.8619C14.8415 26.2181 16.0813 26.9912 17.8841 26.9912C19.6993 26.9912 20.949 26.2075 21.5117 25.8546L21.5517 25.8296L21.6031 25.7976ZM17.1649 16.8178C16.4876 16.8178 16.0836 17.0592 15.5719 17.3751C15.5424 17.3933 15.5103 17.4134 15.4757 17.435C14.91 17.7892 13.6647 18.5687 11.8544 18.5687C10.0479 18.5687 8.80539 17.7924 8.23686 17.4372C8.20084 17.4147 8.16753 17.3939 8.13695 17.3751C7.62367 17.0592 7.22581 16.8178 6.54397 16.8178C6.20783 16.8174 5.87491 16.8833 5.56429 17.0118C5.25366 17.1402 4.97142 17.3287 4.73373 17.5664C4.49605 17.804 4.30759 18.0863 4.17914 18.3969C4.05069 18.7075 3.98477 19.0404 3.98517 19.3766V19.4221C3.98477 19.7582 4.0507 20.091 4.17916 20.4016C4.30763 20.7121 4.49612 20.9943 4.73383 21.2318C4.97153 21.4694 5.25378 21.6577 5.5644 21.786C5.87502 21.9143 6.2079 21.98 6.54397 21.9794C7.22125 21.9794 7.62519 21.738 8.13695 21.4236C8.16846 21.4043 8.2029 21.3828 8.24023 21.3595C8.80932 21.0042 10.0517 20.2285 11.8544 20.2285C13.6594 20.2285 14.9012 21.0047 15.4705 21.3605C15.507 21.3834 15.5409 21.4045 15.5719 21.4236C16.0851 21.7395 16.483 21.9794 17.1649 21.9794C17.5009 21.98 17.8338 21.9143 18.1444 21.786C18.455 21.6577 18.7373 21.4694 18.975 21.2318C19.2127 20.9943 19.4012 20.7121 19.5297 20.4016C19.6581 20.091 19.724 19.7582 19.7236 19.4221V19.3766C19.724 19.0404 19.6581 18.7075 19.5297 18.3969C19.4012 18.0863 19.2128 17.804 18.9751 17.5664C18.7374 17.3287 18.4552 17.1402 18.1445 17.0118C17.8339 16.8833 17.501 16.8174 17.1649 16.8178ZM25.2747 17.249C25.6955 16.9679 26.1902 16.8178 26.6963 16.8178C27.3748 16.8182 28.0254 17.0879 28.5052 17.5677C28.985 18.0475 29.2547 18.6981 29.2551 19.3766C29.2551 19.8827 29.105 20.3774 28.8239 20.7982C28.5427 21.219 28.1431 21.5469 27.6755 21.7406C27.208 21.9343 26.6935 21.9849 26.1971 21.8862C25.7008 21.7875 25.2448 21.5438 24.887 21.1859C24.5291 20.8281 24.2854 20.3721 24.1867 19.8758C24.0879 19.3794 24.1386 18.8649 24.3323 18.3974C24.526 17.9298 24.8539 17.5302 25.2747 17.249ZM5.11759 10.9791C5.11759 12.3923 3.97197 13.5379 2.55879 13.5379C1.14561 13.5379 0 12.3923 0 10.9791C0 9.56596 1.14561 8.42035 2.55879 8.42035C3.97197 8.42035 5.11759 9.56596 5.11759 10.9791Z" fill="white"/>
</svg>
