<svg width="53" height="30" viewBox="0 0 53 30" fill="none" xmlns="http://www.w3.org/2000/svg">
<path d="M7.63 0.579999C10.37 0.579999 12.39 1.18 13.69 2.38C15.01 3.56 15.67 5.21 15.67 7.33C15.67 8.29 15.53 9.21 15.25 10.09C14.97 10.95 14.5 11.72 13.84 12.4C13.2 13.08 12.35 13.62 11.29 14.02C10.25 14.42 8.96 14.62 7.42 14.62H5.62V22H0.52V0.579999H7.63ZM7.45 4.75H5.62V10.45H6.97C7.67 10.45 8.28 10.35 8.8 10.15C9.34 9.95 9.76 9.63 10.06 9.19C10.36 8.75 10.51 8.18 10.51 7.48C10.51 6.6 10.26 5.93 9.76 5.47C9.26 4.99 8.49 4.75 7.45 4.75ZM26.4365 5.2C28.5765 5.2 30.2365 5.7 31.4165 6.7C32.5965 7.68 33.1865 9.14 33.1865 11.08V22H29.6765L28.6865 19.78H28.5665C28.1065 20.36 27.6265 20.84 27.1265 21.22C26.6465 21.6 26.0865 21.87 25.4465 22.03C24.8265 22.21 24.0565 22.3 23.1365 22.3C22.1765 22.3 21.3065 22.11 20.5265 21.73C19.7665 21.35 19.1665 20.77 18.7265 19.99C18.2865 19.21 18.0665 18.22 18.0665 17.02C18.0665 15.26 18.6765 13.96 19.8965 13.12C21.1365 12.28 22.9465 11.81 25.3265 11.71L28.1465 11.62V11.14C28.1465 10.34 27.9365 9.76 27.5165 9.4C27.1165 9.04 26.5565 8.86 25.8365 8.86C25.1165 8.86 24.3665 8.98 23.5865 9.22C22.8065 9.44 22.0165 9.72 21.2165 10.06L19.6865 6.7C20.5865 6.22 21.6065 5.85 22.7465 5.59C23.8865 5.33 25.1165 5.2 26.4365 5.2ZM26.6165 14.56C25.3565 14.6 24.4765 14.83 23.9765 15.25C23.4765 15.65 23.2265 16.2 23.2265 16.9C23.2265 17.52 23.4065 17.97 23.7665 18.25C24.1265 18.53 24.5865 18.67 25.1465 18.67C25.9865 18.67 26.6965 18.42 27.2765 17.92C27.8565 17.4 28.1465 16.7 28.1465 15.82V14.5L26.6165 14.56ZM35.2949 5.53H40.6949L43.6649 14.86C43.7449 15.1 43.8049 15.35 43.8449 15.61C43.9049 15.85 43.9549 16.11 43.9949 16.39C44.0349 16.65 44.0649 16.93 44.0849 17.23H44.1749C44.2349 16.77 44.3049 16.35 44.3849 15.97C44.4849 15.57 44.5849 15.21 44.6849 14.89L47.6549 5.53H52.9349L46.1549 23.62C45.7149 24.84 45.1549 25.86 44.4749 26.68C43.8149 27.52 43.0149 28.15 42.0749 28.57C41.1549 28.99 40.0749 29.2 38.8349 29.2C38.3349 29.2 37.8949 29.17 37.5149 29.11C37.1349 29.07 36.8049 29.02 36.5249 28.96V24.97C36.7449 25.01 37.0049 25.05 37.3049 25.09C37.6249 25.13 37.9549 25.15 38.2949 25.15C38.9349 25.15 39.4649 25.02 39.8849 24.76C40.3049 24.5 40.6549 24.15 40.9349 23.71C41.2149 23.29 41.4449 22.83 41.6249 22.33L41.8049 21.82L35.2949 5.53Z" fill="black"/>
</svg>
