<svg width="36" height="36" viewBox="0 0 36 36" fill="none" xmlns="http://www.w3.org/2000/svg">
<path fill-rule="evenodd" clip-rule="evenodd" d="M33.4286 10.2857H30.8571V5.14286L25.7143 0H7.71429C6.29196 0 5.14286 1.14911 5.14286 2.57143V10.2857H2.57143C1.15714 10.2857 0 11.4429 0 12.8571V25.7143C0 27.1286 1.15714 28.2857 2.57143 28.2857H5.14286V28.3661V33.4286C5.14286 34.8429 6.3 36 7.71429 36H28.2857C29.7 36 30.8571 34.8429 30.8571 33.4286V28.3661V28.2857H33.4286C34.8429 28.2857 36 27.1286 36 25.7143V12.8571C36 11.4429 34.8429 10.2857 33.4286 10.2857ZM7.71429 2.57143H23.1429V7.71429H28.2857V12.8571H7.71429V2.57143ZM28.2857 23.1429H33.4286V20.5714H28.2857H2.57143V23.1429H7.71429V33.4205L7.72232 33.4286H28.2777L28.2857 33.4205V23.1429ZM10.2857 23.1429H25.7143V25.7143H10.2857V23.1429ZM23.1429 28.2857H10.2857V30.8571H23.1429V28.2857Z" fill="#424242"/>
</svg>
