<svg width="29" height="30" viewBox="0 0 29 30" fill="none" xmlns="http://www.w3.org/2000/svg">
<path d="M28.2812 16.5C28.2812 23.587 22.1104 29.3333 14.5 29.3333C6.88955 29.3333 0.71875 23.587 0.71875 16.5C0.71875 9.41302 6.88955 3.66667 14.5 3.66667V0L24.3438 5.5L14.5 11V7.33333C9.07363 7.33333 4.65625 11.4469 4.65625 16.5C4.65625 21.5531 9.07363 25.6667 14.5 25.6667C19.9264 25.6667 24.3438 21.5531 24.3438 16.5C24.3438 14.8328 23.8639 13.2688 23.021 11.9167L26.4355 10.0833C27.6106 11.9682 28.2812 14.1625 28.2812 16.5Z" fill="white"/>
</svg>
