<svg width="33" height="30" viewBox="0 0 33 30" fill="none" xmlns="http://www.w3.org/2000/svg">
<path d="M30.2812 16.5C30.2812 23.587 24.1104 29.3333 16.5 29.3333C8.88955 29.3333 2.71875 23.587 2.71875 16.5C2.71875 9.41302 8.88955 3.66667 16.5 3.66667V0L26.3438 5.5L16.5 11V7.33333C11.0736 7.33333 6.65625 11.4469 6.65625 16.5C6.65625 21.5531 11.0736 25.6667 16.5 25.6667C21.9264 25.6667 26.3438 21.5531 26.3438 16.5C26.3438 14.8328 25.8639 13.2688 25.021 11.9167L28.4355 10.0833C29.6106 11.9682 30.2812 14.1625 30.2812 16.5Z" fill="white"/>
</svg>
