<svg width="179" height="39" viewBox="0 0 179 39" fill="none" xmlns="http://www.w3.org/2000/svg">
<path fill-rule="evenodd" clip-rule="evenodd" d="M21.6378 5.131e-06C20.7841 5.131e-06 20.2749 0.304372 19.6298 0.702537C19.5913 0.726243 19.5495 0.75246 19.5043 0.780805C18.7898 1.22853 17.2282 2.20714 14.9437 2.20714C12.6638 2.20714 11.1056 1.23256 10.3878 0.783577C10.3408 0.754168 10.2973 0.727014 10.2576 0.702537C9.61055 0.304372 9.10327 5.131e-06 8.24952 5.131e-06C7.82588 -0.000750758 7.40626 0.0821004 7.0147 0.24381C6.62315 0.40552 6.26736 0.64291 5.96772 0.942375C5.66807 1.24184 5.43047 1.59749 5.26853 1.98895C5.10659 2.38041 5.02348 2.79998 5.02399 3.22361V3.28295C5.02323 3.70675 5.10615 4.12652 5.26798 4.5182C5.42981 4.90988 5.66737 5.26576 5.96704 5.56543C6.26671 5.86509 6.62258 6.10265 7.01426 6.26448C7.40594 6.42631 7.82572 6.50923 8.24952 6.50847C9.10327 6.50847 9.61246 6.20411 10.2576 5.80594C10.2947 5.783 10.3351 5.75771 10.3787 5.73042C11.0919 5.28396 12.6616 4.30134 14.9437 4.30134C17.2209 4.30134 18.7871 5.27986 19.5038 5.72761L19.5039 5.72765C19.5492 5.756 19.5912 5.78223 19.6298 5.80594C20.2768 6.20411 20.7783 6.50847 21.6378 6.50847C22.0614 6.50923 22.4811 6.42638 22.8726 6.26467C23.2642 6.10296 23.62 5.86557 23.9196 5.5661C24.2192 5.26664 24.4568 4.91098 24.6188 4.51953C24.7807 4.12807 24.8638 3.7085 24.8633 3.28487V3.22552C24.8641 2.80173 24.7812 2.38196 24.6193 1.99028C24.4575 1.5986 24.2199 1.24272 23.9203 0.943051C23.6206 0.643383 23.2647 0.405822 22.8731 0.243992C22.4814 0.0821627 22.0616 -0.00075142 21.6378 5.131e-06ZM29.2391 10.6165C28.3853 10.6165 27.8742 10.919 27.231 11.3171C27.1944 11.3398 27.1546 11.3648 27.1116 11.3917L27.1111 11.3921C26.3997 11.8386 24.8276 12.8256 22.5392 12.8256C20.2666 12.8256 18.7105 11.854 17.9888 11.4033C17.9397 11.3727 17.8944 11.3444 17.8531 11.319C17.2042 10.9209 16.7045 10.6184 15.845 10.6184C15.4222 10.6187 15.0036 10.7022 14.613 10.8642C14.2225 11.0263 13.8677 11.2637 13.5689 11.5628C13.2701 11.862 13.0331 12.2171 12.8715 12.6078C12.71 12.9985 12.6269 13.4173 12.6272 13.8401V13.8975C12.6264 14.3212 12.7093 14.7408 12.871 15.1323C13.0327 15.5239 13.2701 15.8797 13.5695 16.1793C13.869 16.479 14.2247 16.7166 14.6161 16.8785C15.0076 17.0405 15.4271 17.1236 15.8508 17.1231C16.7045 17.1231 17.2156 16.8187 17.8588 16.4205C17.8943 16.3986 17.9327 16.3745 17.9741 16.3485C18.6834 15.9037 20.2587 14.9159 22.5449 14.9159C24.8181 14.9159 26.385 15.8925 27.1045 16.3408L27.105 16.3412C27.1512 16.3699 27.1938 16.3965 27.2329 16.4205C27.8819 16.8187 28.3815 17.1231 29.241 17.1231C29.6646 17.1236 30.0842 17.0405 30.4757 16.8785C30.8671 16.7166 31.2228 16.479 31.5222 16.1793C31.8217 15.8797 32.0591 15.5239 32.2208 15.1323C32.3825 14.7408 32.4653 14.3212 32.4646 13.8975V13.8401C32.4651 13.4165 32.382 12.9969 32.2201 12.6054C32.0581 12.214 31.8205 11.8583 31.5209 11.5589C31.2212 11.2594 30.8654 11.022 30.4739 10.8603C30.0823 10.6986 29.6627 10.6157 29.2391 10.6165ZM29.2402 31.8169C28.3864 31.8169 27.8753 32.1213 27.2321 32.5194C27.1967 32.5414 27.1583 32.5655 27.1169 32.5914C26.4077 33.0362 24.8322 34.0241 22.5441 34.0241C20.2715 34.0241 18.7087 33.0496 17.9887 32.6005L17.9886 32.6005C17.9414 32.5711 17.8979 32.5439 17.858 32.5194C17.2091 32.1213 16.7094 31.8169 15.8499 31.8169C15.4265 31.8164 15.0071 31.8995 14.6157 32.0613C14.2244 32.2231 13.8688 32.4605 13.5694 32.76C13.2699 33.0594 13.0325 33.415 12.8707 33.8063C12.7089 34.1976 12.6258 34.6171 12.6263 35.0405V35.0999C12.6258 35.5233 12.7089 35.9427 12.8707 36.3341C13.0325 36.7254 13.2699 37.081 13.5694 37.3804C13.8688 37.6799 14.2244 37.9173 14.6157 38.0791C15.0071 38.2409 15.4265 38.324 15.8499 38.3235C16.7037 38.3235 17.2148 38.0191 17.858 37.6209L17.902 37.5936L17.9732 37.5489C18.6825 37.1042 20.2578 36.1163 22.5441 36.1163C24.8172 36.1163 26.3842 37.0929 27.1036 37.5412L27.1044 37.5418L27.1083 37.5442C27.1529 37.5719 27.1941 37.5977 27.2321 37.6209C27.881 38.0191 28.3807 38.3235 29.2402 38.3235C29.6636 38.324 30.083 38.2409 30.4744 38.0791C30.8657 37.9173 31.2213 37.6799 31.5207 37.3804C31.8202 37.081 32.0576 36.7254 32.2194 36.3341C32.3812 35.9427 32.4643 35.5233 32.4638 35.0999V35.0405C32.4643 34.6171 32.3812 34.1976 32.2194 33.8063C32.0576 33.415 31.8202 33.0594 31.5207 32.76C31.2213 32.4605 30.8657 32.2231 30.4744 32.0613C30.083 31.8995 29.6636 31.8164 29.2402 31.8169ZM19.6297 21.9023C20.2749 21.5042 20.7841 21.1998 21.6378 21.1998C22.0615 21.1993 22.4812 21.2824 22.8728 21.4443C23.2643 21.6062 23.6201 21.8438 23.9197 22.1434C24.2193 22.443 24.4569 22.7988 24.6188 23.1904C24.7807 23.5819 24.8638 24.0016 24.8633 24.4253V24.4828C24.8638 24.9064 24.7807 25.326 24.6188 25.7174C24.4568 26.1089 24.2192 26.4645 23.9196 26.764C23.62 27.0635 23.2642 27.3008 22.8726 27.4626C22.4811 27.6243 22.0614 27.7071 21.6378 27.7064C20.7783 27.7064 20.2768 27.4039 19.6297 27.0057C19.5907 26.9817 19.548 26.955 19.5019 26.9262C18.7844 26.4777 17.2189 25.4992 14.9437 25.4992C12.6712 25.4992 11.1051 26.477 10.3878 26.9249C10.3407 26.9542 10.2973 26.9813 10.2576 27.0057C9.61246 27.402 9.10327 27.7064 8.24951 27.7064C7.82588 27.7071 7.40625 27.6243 7.0147 27.4626C6.62314 27.3008 6.26735 27.0635 5.96771 26.764C5.66807 26.4645 5.43047 26.1089 5.26853 25.7174C5.10658 25.326 5.02348 24.9064 5.02399 24.4828V24.4253C5.02348 24.0016 5.10657 23.5819 5.26849 23.1904C5.43041 22.7988 5.66798 22.443 5.9676 22.1434C6.26721 21.8438 6.62299 21.6062 7.01456 21.4443C7.40612 21.2824 7.82579 21.1993 8.24951 21.1998C9.10901 21.1998 9.61055 21.5042 10.2576 21.9023C10.296 21.926 10.3378 21.9521 10.383 21.9803L10.3835 21.9807C11.1002 22.4284 12.6664 23.4069 14.9437 23.4069C17.2257 23.4069 18.7954 22.4243 19.5086 21.9779C19.5522 21.9506 19.5926 21.9253 19.6297 21.9023ZM33.6522 21.1998C33.0143 21.1998 32.3907 21.389 31.8603 21.7434C31.3298 22.0978 30.9164 22.6016 30.6723 23.191C30.4281 23.7804 30.3642 24.4289 30.4887 25.0546C30.6132 25.6803 30.9204 26.255 31.3715 26.7061C31.8226 27.1572 32.3973 27.4644 33.023 27.5889C33.6487 27.7133 34.2972 27.6494 34.8866 27.4053C35.476 27.1612 35.9797 26.7478 36.3342 26.2173C36.6886 25.6869 36.8778 25.0633 36.8778 24.4253C36.8773 23.57 36.5373 22.7499 35.9325 22.1451C35.3277 21.5403 34.5076 21.2003 33.6522 21.1998ZM3.22552 17.0657C5.00692 17.0657 6.45104 15.6216 6.45104 13.8402C6.45104 12.0588 5.00692 10.6146 3.22552 10.6146C1.44411 10.6146 0 12.0588 0 13.8402C0 15.6216 1.44411 17.0657 3.22552 17.0657ZM66.8465 15.6298C67.9759 14.3778 69.5571 13.7442 71.5441 13.7442C73.5215 13.7442 75.1007 14.3836 76.2493 15.6298C77.3978 16.8759 77.9721 18.4897 77.9721 20.4269C77.9721 23.0169 77.1834 25.5131 75.6252 27.8504H72.438L72.5146 27.7279C74.2546 25.0326 75.1333 22.5766 75.1333 20.4269C75.1651 19.3097 74.8221 18.214 74.1589 17.3143C73.5176 16.472 72.6696 16.0624 71.5498 16.0624C70.43 16.0624 69.5896 16.4548 68.9522 17.299C68.3147 18.1432 67.995 19.1922 67.995 20.4269C67.995 22.5766 68.8794 25.0326 70.6271 27.7279L70.7037 27.8504H67.505C65.9391 25.515 65.1485 23.0169 65.1485 20.4269C65.1485 18.4897 65.7171 16.8817 66.8465 15.6298ZM108.544 20.188C108.544 22.2267 107.702 24.3994 106.04 26.6563H105.763H102.606H102.302L102.438 26.5089C104.639 24.1678 105.751 22.041 105.751 20.1919C105.751 19.0605 105.424 18.1187 104.777 17.3913C104.13 16.6639 103.493 16.3078 102.863 16.3078C101.906 16.3078 101.205 16.6256 100.725 17.2784C100.244 17.9311 99.9761 18.9151 99.9589 20.1593V23.1207H97.1947V20.1517C97.1736 18.9093 96.9133 17.8948 96.429 17.1444C95.9447 16.394 95.3532 16.0628 94.6028 16.0628C93.7069 16.0628 93.0714 16.4227 92.6598 17.1654C92.2349 17.9426 92.0166 18.9974 92.0166 20.3086V23.1169H89.2276V20.3086C89.2276 18.9993 88.9385 17.9924 88.3681 17.3109C87.7976 16.6294 87.1314 16.304 86.3275 16.304C85.7034 16.304 85.0717 16.6754 84.4496 17.4066C83.8275 18.1379 83.4925 19.2654 83.4925 20.7145C83.4925 23.7964 84.708 26.2103 87.1047 27.8891C89.5013 29.5679 93.6629 30.4504 99.4133 30.4504H101.295V33.0939H99.5569C93.2398 33.0939 88.4542 32.0162 85.3589 29.8895C82.2635 27.7627 80.646 24.6827 80.646 20.7872C80.646 18.6815 81.2202 17.0123 82.3496 15.8101C83.479 14.608 84.8209 13.9859 86.3198 13.9859C88.0981 13.9859 89.5147 14.8664 90.5465 16.6084C91.1878 14.7075 92.5488 13.737 94.5951 13.737C96.4424 13.737 97.7919 14.7152 98.6151 16.6505C99.6488 14.8741 101.079 13.9705 102.87 13.9705C104.367 13.9705 105.7 14.5448 106.835 15.6685C107.97 16.7922 108.544 18.3236 108.544 20.188ZM121.768 16.937C122.899 14.816 124.505 13.744 126.553 13.744C127.331 13.725 128.104 13.8725 128.821 14.1766C129.537 14.4806 130.18 14.9342 130.707 15.507C131.8 16.6805 132.353 18.4167 132.353 20.6755C132.353 23.5679 130.946 25.9837 128.165 27.8578H123.954L124.273 27.6664C127.78 25.5741 129.557 23.2195 129.557 20.6755C129.557 19.1403 129.245 17.9573 128.634 17.205C128.023 16.4527 127.342 16.0698 126.549 16.0698C125.59 16.0698 124.802 16.4871 124.145 17.3466C123.462 18.2643 123.098 19.3804 123.109 20.5243L123.096 23.1813H120.443V20.5568C120.468 19.4142 120.109 18.2962 119.424 17.3811C118.755 16.4986 117.97 16.0698 117.013 16.0698C116.212 16.0698 115.533 16.4335 114.918 17.1935C114.304 17.9534 113.994 19.1269 113.994 20.6755C113.994 23.3076 115.77 25.6583 119.275 27.6644L119.612 27.8559L115.401 27.8559C112.625 25.9818 111.222 23.566 111.222 20.6736C111.222 18.4071 111.773 16.6709 112.861 15.5051C113.387 14.9333 114.029 14.4804 114.744 14.1767C115.46 13.873 116.232 13.7255 117.009 13.744C119.051 13.744 120.65 14.816 121.768 16.937ZM145.323 20.4826C145.857 19.6069 146.136 18.5989 146.127 17.573C146.137 16.9969 146.009 16.4268 145.753 15.9105C145.497 15.3942 145.121 14.9468 144.657 14.6059C143.7 13.8785 142.532 13.509 141.159 13.509C139.758 13.509 138.573 13.8364 137.633 14.4853C136.693 15.1342 136.184 16.0358 136.192 17.1174C136.209 17.6463 136.292 18.171 136.439 18.6794L139.006 18.3731L138.979 18.2966C138.845 17.945 138.763 17.5753 138.738 17.1997C138.749 17.0055 138.806 16.8168 138.907 16.6501C139.007 16.4833 139.146 16.3434 139.312 16.2426C139.695 15.965 140.325 15.8272 141.154 15.8272C141.982 15.8272 142.582 16.0186 143.009 16.3785C143.435 16.7384 143.633 17.1174 143.633 17.527C143.639 18.283 143.484 19.0317 143.177 19.7227C142.671 19.6414 142.158 19.6119 141.646 19.6346C139.28 19.8261 137.488 20.5248 136.314 21.7193C135.738 22.302 135.285 22.9945 134.981 23.7557C134.677 24.5169 134.529 25.3313 134.546 26.1508C134.51 27.9771 135.198 29.7434 136.46 31.0647C137.727 32.4046 139.523 33.088 141.82 33.088C144.071 33.088 145.84 32.4065 147.05 31.0627C147.644 30.4108 148.109 29.6521 148.42 28.8269C148.731 27.968 148.886 27.0604 148.878 26.1469C148.881 23.8594 147.679 21.9547 145.323 20.4826ZM144.875 29.8185C144.054 30.4731 143.016 30.8043 141.785 30.8043C140.631 30.8379 139.501 30.4684 138.59 29.7591C137.74 29.0796 137.312 27.8449 137.312 26.1029C137.284 25.0549 137.622 24.03 138.269 23.2047C138.895 22.4199 140.038 21.9987 141.659 21.9547C143.282 21.9777 144.435 22.4275 145.082 23.2947C145.717 24.1134 146.07 25.1163 146.087 26.1527C146.089 27.9482 145.681 29.1734 144.875 29.8127V29.8185ZM152.771 15.6298C153.903 14.3778 155.484 13.7442 157.469 13.7442C159.446 13.7442 161.022 14.3836 162.17 15.6298C163.319 16.8759 163.893 18.4897 163.893 20.4269C163.893 23.015 163.104 25.5131 161.546 27.8504H158.359L158.437 27.7279C160.176 25.0326 161.054 22.5766 161.054 20.4269C161.086 19.3097 160.743 18.214 160.08 17.3143C159.439 16.472 158.591 16.0624 157.471 16.0624C156.351 16.0624 155.51 16.4548 154.877 17.299C154.243 18.1432 153.92 19.1922 153.92 20.4269C153.92 22.5766 154.804 25.0326 156.552 27.7279L156.632 27.8504H153.43C151.864 25.5131 151.073 23.0169 151.073 20.4269C151.073 18.4897 151.64 16.8817 152.771 15.6298ZM179 21.8709C179 23.8828 178.426 25.4793 177.287 26.6087C176.148 27.7381 174.697 28.3143 172.963 28.3143C170.978 28.3143 169.396 27.6998 168.267 26.4823C167.138 25.2649 166.567 23.6397 166.567 21.6297C166.541 20.4036 166.896 19.1995 167.584 18.1841L170.019 19.2331L169.999 19.2675C169.576 19.984 169.35 20.7995 169.343 21.6316C169.343 22.941 169.672 24.011 170.319 24.8112C170.966 25.6114 171.831 25.9961 172.963 25.9961C173.841 25.9961 174.584 25.6439 175.235 24.9184C175.886 24.1929 176.209 23.1707 176.209 21.8728C176.209 20.1845 175.334 18.81 173.529 17.6883C171.615 16.4899 170.644 14.8379 170.644 12.7801H173.24V12.7916C173.24 14.0608 174.176 15.349 176.02 16.6201C177.999 17.9945 179 19.7518 179 21.8709ZM61.8505 23.7165C61.8754 23.4945 61.8754 23.2686 61.8754 23.037C61.8716 22.9068 61.8677 22.7785 61.862 22.6618C61.7567 20.826 61.1097 19.2984 59.9611 18.1212C59.7687 17.9272 59.5979 17.7453 59.4401 17.5773C59.3985 17.533 59.3579 17.4897 59.318 17.4473L59.288 17.415C58.4072 16.4614 58.0866 16.1144 58.0469 15.5465C57.9722 14.4803 58.2019 13.973 58.2019 13.973H55.499C55.4588 14.2678 55.4339 14.5798 55.4205 14.9071C55.4071 15.3015 55.4148 15.7169 55.4397 16.1514C55.4397 16.1518 55.4396 16.1526 55.4395 16.1541C55.435 16.2136 55.3595 17.2064 57.218 19.0649C57.262 19.1108 57.3098 19.1528 57.3576 19.1949L57.3578 19.1951C57.8617 19.6278 58.2728 20.1581 58.5666 20.7538C58.8604 21.3495 59.0306 21.9985 59.0672 22.6618C59.0775 22.7891 59.0813 22.9169 59.0787 23.0446C59.0818 23.4512 59.0446 23.8571 58.9676 24.2564C58.8811 24.6175 58.7445 24.9648 58.5618 25.2881C58.2189 25.9124 57.7075 26.4278 57.0859 26.7755C56.8619 26.8971 56.6274 26.9983 56.3853 27.078C56.089 27.1728 55.7825 27.2326 55.4722 27.256C55.3631 27.2713 55.2521 27.2713 55.141 27.2713C54.635 27.2834 54.1322 27.1872 53.6663 26.9892C53.2005 26.7911 52.7824 26.4957 52.44 26.1227C51.7241 25.359 51.3259 24.287 51.3259 22.8877V22.6503V9.30793H48.646V22.8781V23.0695C48.6472 24.234 48.938 25.3799 49.4921 26.4041C50.0344 27.3939 50.8435 28.2116 51.8275 28.7644C52.8439 29.3264 53.9893 29.6135 55.1506 29.5971C55.8473 29.6014 56.541 29.5054 57.2104 29.3119C58.3246 29.106 59.3522 28.5729 60.1621 27.7805C61.1671 26.7793 61.7337 25.4164 61.8505 23.7165Z" fill="#483D3D"/>
</svg>
